# xmcd
#
# Track frame offsets: 
#        150
#        13505
#        32305
#        55830
#        67445
#        97915
#        113342
#        129685
#        148777
#        164722
#        177735
#        192720
#        213560
#        235417
#        248555
#        269765
#        284215
#        298047
#        309805
#        318250
#
# Disc length: 4655 seconds
#
# Revision: 1
# Processed by: cddbd v1.5.2PL0 Copyright (c) Steve Scherf et al.
# Submitted via: ExactAudioCopy v1.0b3
#
DISCID=3d122d14
DTITLE=Various Artist - Svensk jazzhistoria. Vol. 8 - Swedish jazz 19
DTITLE=56-1959 - Topsy theme
DYEAR=2002
DGENRE=Jazz
TTITLE0=Harry Arnolds Radioband - Quincy's home again
TTITLE1=Quincy Jones-Harry Arnold - The midnight sun never sets
TTITLE2=Lars Gullin Quintet - Icarus on the moon
TTITLE3=Monica Zetterlund, Gunnar Svenssons orkester - More than you k
TTITLE3=now
TTITLE4=Stan Getz and His Swedish Jazzmen - Honeysuckle rose
TTITLE5=Eje Thelins och Bosse Skoglunds storband - Reggie of Chester
TTITLE6=Åke Jönssons orkester - It don't mean a thing if it ain't got 
TTITLE6=that swing
TTITLE7=Lennart Janssons Trio - Well you needn't
TTITLE8=In the fall - Lars Werner Trio - A waltz for Nannie
TTITLE9=Malte Johnsons orkester - Muted mixture
TTITLE10=Alice Babs, Arne Domnerus - New Orleans
TTITLE11=Arne Domnerus orkester - Milestones
TTITLE12=Rune Öfwermans Trio - Old spice
TTITLE13=Hacke Björkstens septett - High Brown
TTITLE14=Monica Zetterlund, Åke Persson, Gösta Theselius - My funny Va
TTITLE14=lentine
TTITLE15=Gunnar Lundén-Weldens studioorkester - Lulu's back in town
TTITLE16=Bengt-Arne Wallin and His Tentet - Norwegian highway
TTITLE17=The Linn-Tones - The late late show
TTITLE18=Jan Allan and Georg Riedel - Intervjuas av Carl-Erik Lindgren
TTITLE19=Jan Allan and Georg Riedel - Sold i musik - svit i fyra delar
EXTD=
EXTT0=
EXTT1=
EXTT2=
EXTT3=
EXTT4=
EXTT5=
EXTT6=
EXTT7=
EXTT8=
EXTT9=
EXTT10=
EXTT11=
EXTT12=
EXTT13=
EXTT14=
EXTT15=
EXTT16=
EXTT17=
EXTT18=
EXTT19=
PLAYORDER=
